<svg width="21" height="20" viewBox="0 0 21 20" fill="none" xmlns="http://www.w3.org/2000/svg">
<path d="M9.40865 0.85958C9.70849 -0.0606967 11.0104 -0.0606959 11.3103 0.859581L13.0613 6.23398C13.1955 6.64561 13.5792 6.92418 14.0122 6.92418H19.6729C20.6423 6.92418 21.0446 8.16521 20.2596 8.73398L15.6848 12.0486C15.3333 12.3033 15.1862 12.7555 15.3207 13.1682L17.0692 18.5349C17.3693 19.4557 16.316 20.2227 15.5317 19.6544L10.9462 16.3321C10.5961 16.0784 10.1228 16.0784 9.77273 16.3321L5.18718 19.6544C4.40293 20.2227 3.34964 19.4557 3.64966 18.5348L5.39823 13.1682C5.53269 12.7555 5.38561 12.3033 5.03415 12.0486L0.459273 8.73398C-0.325733 8.16521 0.0765975 6.92418 1.04599 6.92418H6.70675C7.13967 6.92418 7.52343 6.64561 7.65755 6.23398L9.40865 0.85958Z" fill="#070707"/>
</svg>
